<svg version="1.1" id="Layer_1" xmlns="http://www.w3.org/2000/svg" xmlns:xlink="http://www.w3.org/1999/xlink" x="0px" y="0px"
	 width="100%" viewBox="0 0 550 550" enable-background="new 0 0 550 550" xml:space="preserve">

<path fill="#08B0FF" opacity="1.000000" stroke="none" 
	d="
M463.131348,309.915039 
	C445.359222,287.696167 427.747864,265.796417 409.272491,242.822235 
	C409.272491,268.310028 409.272491,292.453979 409.272491,316.766663 
	C403.617737,316.766663 398.491150,316.766663 392.876801,316.766663 
	C392.876801,281.941895 392.876801,247.250641 392.876801,211.999252 
	C396.445496,211.999252 400.079437,211.770370 403.658325,212.114532 
	C405.044250,212.247818 406.650085,213.403214 407.572571,214.558609 
	C426.186218,237.872498 444.713776,261.255096 463.277100,284.609253 
	C463.440186,284.814392 463.853912,284.820312 464.809296,285.138885 
	C464.809296,260.780609 464.809296,236.636276 464.809296,212.249512 
	C470.704865,212.249512 475.946594,212.249512 481.482178,212.249512 
	C481.482178,247.008530 481.482178,281.584686 481.482178,316.494263 
	C474.280243,317.595154 467.326569,318.384399 463.131348,309.915039 
z"/>
<path fill="#04AFFF" opacity="1.000000" stroke="none" 
	d="
M280.245239,304.753723 
	C257.678375,282.739471 258.484650,234.895309 291.240234,216.714508 
	C315.100800,203.470856 354.278778,207.562180 367.348206,240.294052 
	C376.151947,262.342590 374.446960,283.802094 359.069794,302.776123 
	C351.361633,312.287292 340.400543,317.154785 328.492767,318.578430 
	C313.597809,320.359161 298.946228,319.067413 286.149445,309.868927 
	C284.138336,308.423309 282.373993,306.634338 280.245239,304.753723 
M323.768433,303.443054 
	C330.808289,302.630615 337.434387,300.679657 342.817078,295.829651 
	C356.208557,283.763489 358.044708,268.303345 353.836060,252.169540 
	C346.462097,223.901443 314.982086,218.825073 296.579803,231.772964 
	C284.683685,240.143112 281.450195,252.442276 281.756653,266.204407 
	C282.297119,290.475800 298.685608,305.452271 323.768433,303.443054 
z"/>
<path fill="#05AFFF" opacity="1.000000" stroke="none" 
	d="
M176.107819,309.930786 
	C171.575211,305.253143 167.379364,300.702393 162.763245,295.695801 
	C167.976974,292.231750 172.040146,289.532135 176.102158,286.833282 
	C189.187729,306.439911 213.966385,307.130310 227.556839,299.906555 
	C232.726318,297.158813 235.104980,292.882782 235.284821,287.036560 
	C235.468430,281.067413 232.543640,276.731598 227.471313,274.962524 
	C219.920837,272.329163 211.923340,270.999420 204.161377,268.943939 
	C197.189148,267.097565 190.131195,265.424591 183.368149,262.967560 
	C165.071625,256.320435 161.979477,229.286316 180.028915,217.424454 
	C195.322586,207.373627 223.226883,206.934860 238.161728,217.248550 
	C241.807220,219.766068 245.032486,222.892120 249.106369,226.284088 
	C243.391785,230.203720 239.373840,232.959625 235.326187,235.735916 
	C223.946579,223.910736 210.383286,221.827805 195.351883,226.656174 
	C193.213058,227.343170 191.128113,228.617599 189.393005,230.068375 
	C182.270187,236.023880 182.891998,245.428467 191.456543,249.012512 
	C198.782394,252.078171 206.908081,253.381302 214.782486,254.949249 
	C224.384354,256.861176 233.987701,258.684845 242.042603,264.671112 
	C257.837891,276.409851 255.795929,303.536499 237.014252,312.625854 
	C217.647415,321.998444 197.761902,321.910614 178.407181,311.592743 
	C177.685333,311.207916 177.095779,310.574951 176.107819,309.930786 
z"/>
<path fill="#07B0FF" opacity="1.000000" stroke="none" 
	d="
M147.606964,267.911469 
	C147.603317,282.643585 145.526611,296.280518 134.632919,306.738800 
	C123.850258,317.090485 110.464828,320.245819 96.086693,318.581421 
	C83.759911,317.154449 72.757645,312.481018 65.278893,301.739807 
	C60.213768,294.465179 58.105614,286.211304 57.435265,277.563782 
	C57.354443,276.521179 59.231709,274.446564 60.335014,274.348145 
	C64.603508,273.967468 68.926102,274.193451 73.192337,274.193451 
	C73.997604,278.419037 74.382866,282.360992 75.526154,286.069214 
	C78.590103,296.006989 85.920258,301.076141 95.863152,302.571503 
	C109.005440,304.547974 121.768951,300.970551 127.793701,287.533875 
	C129.043777,284.745911 129.913315,281.534637 129.961334,278.502655 
	C130.217102,262.351440 130.159851,246.195175 130.189713,230.040634 
	C130.190857,229.416016 129.975281,228.790985 129.770737,227.675552 
	C118.916298,227.675552 108.175858,227.675552 97.218307,227.675552 
	C97.218307,222.363297 97.218307,217.576782 97.218307,212.393921 
	C113.675575,212.393921 130.231766,212.393921 147.607147,212.393921 
	C147.607147,230.628510 147.607147,249.026642 147.606964,267.911469 
z"/>
<path fill="#434554" opacity="1.000000" stroke="none" 
	d="
M530.870972,249.965424 
	C530.918091,253.287369 530.846069,256.123871 531.040527,258.942017 
	C531.323059,263.035492 533.073975,266.968231 537.136230,267.627502 
	C541.931396,268.405731 542.017456,271.008759 541.775757,274.535248 
	C541.662720,276.185059 541.756409,277.849030 541.756409,279.933472 
	C531.460754,280.827972 530.774292,288.013397 530.796753,296.065002 
	C530.822205,305.188385 530.899780,314.386383 529.836182,323.420258 
	C528.306519,336.412476 514.846497,344.068207 502.500916,339.556580 
	C501.615997,339.233215 500.721130,337.704193 500.633057,336.667603 
	C500.381744,333.710022 500.544739,330.717194 500.544739,327.397827 
	C501.546234,327.263641 502.303406,327.074158 503.060577,327.074036 
	C512.915710,327.072662 514.246155,325.791168 514.437195,316.006134 
	C514.618896,306.705933 515.030945,297.401733 514.885498,288.106415 
	C514.779541,281.336060 517.845093,277.127502 524.616272,274.418823 
	C515.176270,271.472656 514.686096,264.061554 514.482422,256.669281 
	C514.285400,249.517212 514.451477,242.355469 514.435425,235.198029 
	C514.407654,222.816666 512.746277,221.144241 500.776672,221.634964 
	C500.776672,218.028793 500.776672,214.425461 500.776672,210.804993 
	C517.160034,205.405212 530.130127,212.729034 530.829529,231.496414 
	C531.052551,237.480408 530.868713,243.479584 530.870972,249.965424 
z"/>
<path fill="#444554" opacity="1.000000" stroke="none" 
	d="
M38.331249,322.071106 
	C41.250050,328.401581 46.601467,326.182007 51.443989,326.376831 
	C51.443989,330.408112 51.443989,334.305634 51.443989,338.852112 
	C46.116959,338.852112 40.826523,339.433990 35.719727,338.713776 
	C28.324650,337.670837 22.867643,331.175720 22.097734,322.373291 
	C21.302691,313.283539 21.415005,304.114471 21.126848,294.980225 
	C21.058590,292.816498 21.225134,290.609253 20.852396,288.498199 
	C19.847710,282.807953 17.528524,280.822906 10.242376,279.252106 
	C10.242376,277.570862 10.242376,275.777283 10.242376,273.983734 
	C10.242376,272.162750 10.242376,270.341797 10.242376,268.606171 
	C19.329697,265.816589 20.960257,263.465393 21.148310,253.850754 
	C21.330301,244.546005 21.115263,235.185333 22.089777,225.956421 
	C23.308367,214.416046 30.087605,208.831161 41.527149,209.003616 
	C52.299480,209.165970 52.255360,206.288528 51.475403,220.714554 
	C50.435101,220.780319 49.343582,220.942444 48.259438,220.902863 
	C40.628529,220.624207 38.041882,222.752945 37.751522,230.562973 
	C37.436024,239.049118 37.641010,247.553696 37.553436,256.049530 
	C37.477905,263.377106 36.653656,270.382080 27.418566,273.953461 
	C37.143150,277.201538 37.307785,284.552460 37.531559,291.738770 
	C37.842426,301.722107 37.932541,311.712250 38.331249,322.071106 
z"/>

</svg>