<?xml version="1.0" standalone="no"?>
<!DOCTYPE svg PUBLIC "-//W3C//DTD SVG 20010904//EN"
 "http://www.w3.org/TR/2001/REC-SVG-20010904/DTD/svg10.dtd">
<svg version="1.0" xmlns="http://www.w3.org/2000/svg"
 width="599.000000pt" height="235.000000pt" viewBox="0 0 599.000000 235.000000"
 preserveAspectRatio="xMidYMid meet">

<g transform="translate(0.000000,235.000000) scale(0.100000,-0.100000)"
fill="#880000" stroke="none">
<path d="M3205 2330 c-38 -5 -88 -12 -110 -18 l-40 -9 128 -61 c151 -72 245
-135 120 -81 -89 39 -275 99 -388 124 -232 52 -370 40 -407 -35 -37 -73 -13
-235 56 -386 123 -266 354 -479 633 -586 46 -17 82 -33 80 -34 -7 -8 -191 48
-252 75 -212 97 -424 306 -521 516 -38 83 -74 219 -74 282 0 56 -15 63 -142
63 -581 0 -1215 -234 -1858 -686 -121 -85 -351 -267 -389 -308 l-25 -26 35 6
c19 4 77 19 129 34 334 97 753 97 1041 0 97 -32 247 -111 325 -171 45 -35 151
-143 218 -224 l25 -30 1 218 0 217 249 0 249 0 112 -207 c62 -115 115 -211
119 -215 3 -4 58 90 121 207 l115 215 257 0 258 0 2 -415 3 -414 41 26 c23 15
49 41 59 59 24 46 91 107 160 149 130 77 262 101 637 111 l206 6 -34 71 c-19
39 -34 77 -34 83 0 7 11 26 25 42 27 32 42 37 315 102 74 17 300 65 502 105
529 106 610 130 675 197 38 40 130 222 145 289 9 39 9 54 -2 74 -15 29 -66 55
-108 55 -29 0 -32 -4 -63 -92 -18 -50 -34 -87 -36 -81 -3 9 10 79 34 179 4 19
-13 28 -169 91 -505 206 -1274 397 -1858 463 -211 24 -462 33 -565 20z m-428
-241 c177 -62 350 -164 438 -258 l30 -32 -40 17 c-22 9 -57 25 -78 36 -22 11
-41 18 -43 16 -2 -2 17 -34 41 -71 25 -36 45 -69 45 -72 0 -3 -17 6 -37 19
-40 27 -123 59 -131 52 -2 -3 28 -42 67 -87 39 -45 69 -84 67 -87 -3 -2 -21 1
-41 8 -20 7 -39 10 -41 7 -3 -3 24 -44 60 -91 37 -47 64 -86 61 -86 -22 0
-186 122 -269 200 -171 160 -298 394 -244 448 16 16 14 16 115 -19z m1533
-168 c145 -26 458 -93 500 -107 10 -4 3 -12 -23 -25 -30 -16 -69 -22 -175 -28
-234 -13 -368 13 -431 84 -16 18 -30 38 -32 44 -2 5 -38 21 -79 35 l-75 24 75
1 c43 1 146 -11 240 -28z m445 -646 c-22 -7 -113 -36 -203 -65 -178 -56 -321
-123 -366 -172 -28 -31 -29 -32 -24 -127 l6 -96 -29 60 c-16 34 -32 82 -35
108 -6 45 -5 48 32 83 22 19 75 53 119 74 94 45 321 116 432 135 100 17 118
17 68 0z"/>
<path d="M2290 342 l0 -332 235 0 c180 0 237 3 240 13 3 7 4 155 3 329 l-3
317 -115 -179 c-63 -99 -117 -179 -120 -180 -3 0 -23 28 -45 63 -22 34 -75
116 -117 182 l-78 120 0 -333z"/>
</g>
</svg>
