<svg version="1.1" id="Layer_1" xmlns="http://www.w3.org/2000/svg" xmlns:xlink="http://www.w3.org/1999/xlink" x="0px" y="0px"
	 width="100%" viewBox="0 0 200 200" enable-background="new 0 0 200 200" xml:space="preserve">

<path fill="#F74949" opacity="1.000000" stroke="none" 
	d="
M114.664841,138.598633 
	C104.950020,148.727509 87.322784,144.431839 84.830742,130.357498 
	C83.086182,120.504669 88.816940,113.386078 97.985985,111.087524 
	C101.942535,110.095673 106.056732,109.718018 110.108543,109.124283 
	C116.622902,108.169724 121.179901,104.282921 121.819687,97.871880 
	C122.220116,93.859360 121.831581,89.544662 120.746323,85.659027 
	C119.066826,79.645752 115.079132,77.562057 108.523766,76.902245 
	C103.680374,76.414757 98.738441,75.536263 94.183868,73.884766 
	C88.036362,71.655693 83.607193,64.013206 84.203064,58.250549 
	C85.081825,49.752090 91.169983,43.070858 99.715134,42.190063 
	C106.743301,41.465630 113.101097,44.033043 116.430984,51.108948 
	C118.144379,54.749855 119.188103,58.803608 119.930374,62.783463 
	C121.468567,71.030830 125.445091,74.446571 133.966995,75.094193 
	C138.340317,75.426537 142.763031,76.349426 146.943405,77.691048 
	C153.289917,79.727852 158.048126,86.965927 157.825455,93.264915 
	C157.560669,100.755280 153.366791,106.899193 146.498444,108.900894 
	C141.806046,110.268440 136.939102,111.286682 132.081024,111.779701 
	C124.080338,112.591652 121.637451,116.128868 119.886650,124.052856 
	C118.809013,128.930130 116.584717,133.554031 114.664841,138.598633 
z"/>
<path fill="#FAFAFA" opacity="1.000000" stroke="none" 
	d="
M79.906464,100.703079 
	C73.024597,113.561584 56.883709,113.230881 50.045319,102.387375 
	C46.188648,96.271912 46.802151,87.694054 51.685329,82.087448 
	C56.697239,76.333015 64.894501,74.701958 71.930901,78.059067 
	C78.785034,81.329201 82.542000,88.617599 81.152695,96.056885 
	C80.882141,97.505623 80.406204,98.916000 79.906464,100.703079 
z"/>
<path fill="#FAFAFA" opacity="1.000000" stroke="none" 
	d="
M39.519958,120.753082 
	C42.116505,128.247925 40.710732,134.677505 35.332371,139.824341 
	C30.570589,144.381149 24.727230,145.731644 18.315763,143.496078 
	C10.688207,140.836487 6.632324,134.425842 6.994931,125.652092 
	C7.287578,118.571136 12.307534,112.842377 20.081160,110.718140 
	C26.804543,108.880890 33.805573,111.855957 37.988544,118.326164 
	C38.437637,119.020821 38.894524,119.710434 39.519958,120.753082 
z"/>
<path fill="#FAFAFA" opacity="1.000000" stroke="none" 
	d="
M163.716171,118.820236 
	C169.569000,110.102928 179.176987,107.724648 187.121429,112.795135 
	C194.991791,117.818352 197.522827,127.757126 192.969177,135.757767 
	C188.345428,143.881546 178.480988,146.818909 170.311783,142.504562 
	C161.905472,138.064987 159.014587,128.167145 163.716171,118.820236 
z"/>
</svg>