<svg version="1.1" id="Layer_1" xmlns="http://www.w3.org/2000/svg" xmlns:xlink="http://www.w3.org/1999/xlink" x="0px" y="0px"
	 width="100%" viewBox="0 0 325 325" enable-background="new 0 0 325 325" xml:space="preserve">

<path fill="#626262" opacity="1.000000" stroke="none" 
	d="
M134.819733,299.535919 
	C116.381218,290.713074 97.940094,281.895691 79.504845,273.066040 
	C54.820408,261.243286 30.140530,249.410980 5.480438,237.162292 
	C5.656108,236.388245 5.528867,236.149323 5.120460,236.025009 
	C5.066772,208.265762 4.996308,180.506531 4.964985,152.747269 
	C4.942100,132.465591 4.970727,112.183861 5.201178,91.364792 
	C5.662395,90.517921 5.594651,90.258217 5.222727,90.048309 
	C14.248810,85.386902 23.274893,80.725502 33.856556,75.260750 
	C33.856556,96.072021 33.836639,115.468727 33.861580,134.865387 
	C33.893070,159.359909 34.141663,183.856430 33.869019,208.347321 
	C33.810860,213.571655 35.009647,216.465668 40.361580,217.104813 
	C42.116535,217.314377 43.822433,217.934692 46.021072,218.484863 
	C46.361786,211.580612 46.898903,205.158646 46.957153,198.732315 
	C47.191254,172.906784 47.225220,147.079468 47.436855,121.253662 
	C47.569168,105.107178 47.823318,88.960663 48.217110,72.818901 
	C48.257401,71.167480 49.195465,68.696533 50.457245,68.049461 
	C60.565746,62.865524 70.852463,58.029102 81.817696,52.732201 
	C81.817696,55.106689 81.815994,56.700775 81.817947,58.294853 
	C81.879898,108.783691 81.925491,159.272552 82.028419,209.761322 
	C82.039589,215.240997 82.240738,220.731216 82.673965,226.191147 
	C82.778603,227.509750 83.884552,229.418579 85.004135,229.863815 
	C88.644318,231.311356 92.504211,232.206390 97.131935,233.564194 
	C97.131935,231.018860 97.119583,229.110214 97.133736,227.201782 
	C97.557457,170.064850 98.051605,112.928246 98.330429,55.790611 
	C98.368530,47.981937 99.693932,42.509293 108.459152,39.545624 
	C118.066124,36.297348 126.914436,30.805265 136.858200,25.914820 
	C136.858200,28.115097 136.858200,29.673101 136.401413,31.747252 
	C135.629761,33.649803 135.040054,35.036068 135.039337,36.422638 
	C134.995590,120.743607 134.991180,205.064621 135.067627,289.385529 
	C135.069092,290.997131 136.078613,292.607788 136.617813,294.218903 
	C136.679565,295.179047 136.741318,296.139221 136.297440,297.636292 
	C135.467789,298.627472 135.143753,299.081696 134.819733,299.535919 
z"/>
<path fill="#F57D05" opacity="1.000000" stroke="none" 
	d="
M154.039642,209.000000 
	C154.039642,196.676926 154.039642,184.853836 154.039642,172.475128 
	C210.742126,171.554535 267.187836,170.638107 323.958771,169.716415 
	C323.958771,191.452942 323.961243,212.436584 323.957672,233.420212 
	C323.956024,243.080185 323.955048,243.094513 314.668335,245.947281 
	C281.974304,255.990509 249.259415,265.966217 216.587341,276.080261 
	C195.947906,282.469452 175.370544,289.059174 154.039627,295.787872 
	C154.039627,266.670166 154.039627,238.085083 154.039642,209.000000 
M292.650726,202.904846 
	C259.129547,206.874039 225.608368,210.843216 192.025024,214.819748 
	C192.025024,221.513947 192.025024,227.623978 192.025024,234.021439 
	C226.782944,227.575989 261.236938,221.186905 296.263184,214.691696 
	C296.263184,211.463043 296.422363,208.162460 296.141388,204.899765 
	C296.078125,204.165359 294.478790,203.563248 292.650726,202.904846 
z"/>
<path fill="#F57D05" opacity="1.000000" stroke="none" 
	d="
M245.000092,155.909393 
	C214.589294,155.336609 184.678482,154.766617 154.403809,154.189682 
	C154.403809,113.294594 154.403809,72.741257 154.403809,31.418770 
	C210.990097,48.852303 267.298370,66.200180 323.743195,83.590134 
	C323.743195,107.947220 323.743195,132.062851 323.743195,155.912186 
	C297.616608,155.912186 271.558350,155.912186 245.000092,155.909393 
M241.113663,101.238411 
	C224.830490,98.146545 208.547333,95.054680 192.062439,91.924515 
	C192.062439,98.623672 192.062439,104.716667 192.062439,111.153076 
	C226.804993,115.433609 261.309082,119.684769 296.340637,124.000908 
	C296.340637,120.841400 296.163971,118.192268 296.389648,115.577881 
	C296.621582,112.891212 295.506165,111.633064 292.983063,111.163063 
	C275.953583,107.990753 258.930603,104.783623 241.113663,101.238411 
z"/>
<path fill="#5B5B5B" opacity="1.000000" stroke="none" 
	d="
M136.706604,293.780762 
	C136.078613,292.607788 135.069092,290.997131 135.067627,289.385529 
	C134.991180,205.064621 134.995590,120.743607 135.039337,36.422638 
	C135.040054,35.036068 135.629761,33.649803 136.312485,32.140049 
	C136.746201,32.844543 136.869888,33.672401 136.869705,34.500237 
	C136.850952,120.781021 136.822891,207.061813 136.706604,293.780762 
z"/>
<path fill="#545454" opacity="1.000000" stroke="none" 
	d="
M5.131216,90.271927 
	C5.594651,90.258217 5.662395,90.517921 5.274818,90.899445 
	C5.123674,90.971443 5.039704,90.495544 5.131216,90.271927 
z"/>
<path fill="#545454" opacity="1.000000" stroke="none" 
	d="
M5.073767,236.264160 
	C5.528867,236.149323 5.656108,236.388245 5.369012,236.842712 
	C5.235839,236.943619 5.027074,236.503296 5.073767,236.264160 
z"/>
<path fill="#5B5B5B" opacity="1.000000" stroke="none" 
	d="
M135.353088,299.592773 
	C135.143753,299.081696 135.467789,298.627472 136.172684,297.978333 
	C136.331192,298.405487 136.108810,299.027557 135.353088,299.592773 
z"/>


</svg>